<?xml version="1.0" encoding="utf-8"?>
<!-- Generator: Adobe Illustrator 16.0.0, SVG Export Plug-In . SVG Version: 6.00 Build 0)  -->
<!DOCTYPE svg PUBLIC "-//W3C//DTD SVG 1.1//EN" "http://www.w3.org/Graphics/SVG/1.1/DTD/svg11.dtd">
<svg version="1.1" id="Layer_1" xmlns="http://www.w3.org/2000/svg" xmlns:xlink="http://www.w3.org/1999/xlink" x="0px" y="0px"
	 width="260.811px" height="113.513px" viewBox="0 0 260.811 113.513" enable-background="new 0 0 260.811 113.513"
	 xml:space="preserve">
<g>
	<g>
		<polygon fill="#ffffff" points="94.526,50.293 100.362,50.293 101.536,61.004 102.561,61.004 103.735,50.293 109.762,50.293 
			109.762,43.038 94.526,43.038 		"/>
		<path fill="#ffffff" d="M109.762,31.552V19.233c0-3.469-2.275-6.406-5.418-7.4l-2.348-3.283l-2.346,3.283
			c-2.006,0.637-3.656,2.067-4.59,3.922c-5.539-3.148-12.361-4.73-20.477-4.73c-12.838,0-22.666,3.727-29.479,11.174
			c-5.012,5.367-8.135,12.759-9.373,22.169V29.071c0,0-0.373,0-3.633,0c-3.262,0-5.926,2.645-5.926,5.906v30.175
			c0,0-12.217-4.779-12.217,2.92c0,0-5.18-6.406,6.676-8.604c-3.332-0.27-6.6-0.141-8.182,0.865
			c-1.086,0.691-2.379,2.098-2.379,4.875c0,2.779,1.293,4.186,2.379,4.877c1.127,0.715,2.551,0.988,4.068,0.988
			c1.998,0,6.402-0.473,9.654-1.029v5.559c0,3.262,2.664,5.904,5.926,5.904c3.26,0,3.633,0,3.633,0V64.86h0.109
			c1.281,8.826,4.283,15.848,9.025,21.049c1.43,1.639,3.01,3.084,4.723,4.361c0.268,0.199,0.531,0.406,0.807,0.598
			c1.041,0.725,2.135,1.381,3.273,1.979c-1.477,2.053-3.518,5.018-3.518,5.736c0,0.018,0.008,0.035,0.008,0.053
			c-0.045,0.197-0.076,0.398-0.076,0.602c0,4.217,10.18,7.637,22.736,7.637s22.734-3.42,22.734-7.637
			c0-0.854-0.424-1.674-1.193-2.439c-6.268,3.729-13.441,5.723-20.926,5.723c-4.807,0-9.484-0.828-13.879-2.408
			c8.785,2.234,14.416-0.303,14.416-0.303c-6.141-0.168-10.842-2.406-13.85-4.406c3.906,1.117,8.25,1.68,13.033,1.68
			c8.955,0,16.438-1.867,22.463-5.588c0.6-0.371,1.184-0.76,1.756-1.164c0.496-0.352,0.982-0.713,1.457-1.094
			c6.338-5.385,9.902-12.838,10.697-22.346h-6.064h-0.059H93.127c-1.271,5.229-3.41,9.033-6.42,11.41
			c-3.328,2.537-7.527,3.805-12.598,3.805c-7.293,0-12.762-2.455-16.404-7.371c-3.803-4.754-5.707-11.564-5.707-20.443
			c0-9.191,1.904-16.166,5.707-20.922c3.959-4.753,9.588-7.131,16.879-7.131c5.229,0,9.428,1.188,12.6,3.564
			c1.582,1.589,2.93,3.411,4.043,5.469c1.58,3.328,4.277,4.994,8.082,4.994l10.453-0.014v-2.88h-0.357h-2.508h-1.164
			c0,0,0.016-0.441-0.063-1.231c-0.273-2.82-1.695-10.086-8.986-17.579c0,0,2.365,0.591,5.219,2.603
			C104.625,23.085,107.786,26.31,109.762,31.552z"/>
	</g>
	<g>
		<g>
			<path fill="#ffffff" d="M115.071,105.114V77.022c0-5.662,0.834-10.416,2.506-14.266c1.668-3.844,3.953-6.929,6.859-9.253
				c2.756-2.179,5.988-3.773,9.691-4.791c3.703-1.014,7.516-1.524,11.432-1.524c0.289,0,0.654,0,1.09,0c0.438,0,0.795,0,1.09,0
				v15.461h-5.008c-4.215,0-7.334,1.018-9.367,3.049c-2.035,2.035-3.049,5.227-3.049,9.582v29.834H115.071z"/>
			<path fill="#ffffff" d="M187.237,102.719c-3.049,1.6-6.285,2.576-9.693,2.939c-3.414,0.361-6.422,0.545-9.037,0.545
				c-5.225,0-9.799-1.416-13.719-4.246c-3.92-2.832-5.881-7.516-5.881-14.047c0-6.098,1.777-10.453,5.336-13.066
				c3.557-2.613,8.092-4.355,13.611-5.227c0.725,0,1.596-0.109,2.613-0.328c1.014-0.219,2.178-0.396,3.484-0.543
				c6.387-0.871,9.582-2.756,9.582-5.66c0-2.18-1.127-3.596-3.375-4.248c-2.256-0.654-4.324-0.98-6.207-0.98
				c-2.035,0-3.848,0.292-5.445,0.871c-1.6,0.582-2.76,1.67-3.482,3.266h-14.592c0.576-4.498,2.611-8.2,6.096-11.105
				c3.922-3.338,9.508-5.01,16.771-5.01c8.127,0,14.227,1.383,18.293,4.139c4.209,2.904,6.314,6.969,6.314,12.195v19.818
				c0,5.807-1.057,10.342-3.158,13.609C192.641,98.909,190.139,101.27,187.237,102.719z M183.752,75.934
				c-2.037,1.018-4.867,1.959-8.496,2.828l-5.006,1.09c-2.615,0.729-4.504,1.672-5.664,2.832c-1.018,1.6-1.523,3.195-1.523,4.791
				c0,2.178,0.654,3.92,1.961,5.227c1.307,1.164,3.189,1.74,5.662,1.74c4.061,0,7.256-1.158,9.582-3.482
				c2.318-2.32,3.484-5.516,3.484-9.582V75.934z"/>
			<path fill="#ffffff" d="M201.036,105.114V45.444c0-5.227,1.377-9.146,4.139-11.76c2.613-2.467,6.893-3.701,12.85-3.701
				c1.447,0,2.611,0.074,3.482,0.217c1.596,0,2.832,0.076,3.703,0.219v11.977h-3.92c-2.035,0-3.486,0.293-4.355,0.871
				c-0.73,0.583-1.088,1.742-1.088,3.484v3.92h9.363v3.268c0,2.178-0.729,3.957-2.178,5.333c-1.453,1.383-3.125,2.07-5.008,2.07
				h-2.178v43.771H201.036z"/>
			<path fill="#ffffff" d="M252.946,105.114c-4.789,0.289-9.984,0.219-15.568-0.217c-5.592-0.438-8.387-3.992-8.387-10.672V30.2
				h7.84c1.887,0,3.559,0.729,5.012,2.177c1.447,1.455,2.176,3.196,2.176,5.228v9.801h8.928v3.049c0,2.179-0.727,3.956-2.178,5.336
				c-1.451,1.381-3.195,2.068-5.225,2.068h-1.525v32.23c0,2.471,1.447,3.703,4.355,3.703h4.572V105.114z"/>
		</g>
	</g>
</g>
</svg>
