<?xml version="1.0" encoding="UTF-8" standalone="no"?>
<!-- Created with Inkscape (http://www.inkscape.org/) -->

<svg
   xmlns:dc="http://purl.org/dc/elements/1.1/"
   xmlns:cc="http://creativecommons.org/ns#"
   xmlns:rdf="http://www.w3.org/1999/02/22-rdf-syntax-ns#"
   xmlns:svg="http://www.w3.org/2000/svg"
   xmlns="http://www.w3.org/2000/svg"
   xmlns:sodipodi="http://sodipodi.sourceforge.net/DTD/sodipodi-0.dtd"
   xmlns:inkscape="http://www.inkscape.org/namespaces/inkscape"
   width="601.19214"
   height="245.8125"
   id="svg3181"
   version="1.1"
   inkscape:version="0.48.5 r10040"
   sodipodi:docname="craft logo.svg">
  <defs
     id="defs3183" />
  <sodipodi:namedview
     id="base"
     pagecolor="#ffffff"
     bordercolor="#666666"
     borderopacity="1.0"
     inkscape:pageopacity="0.0"
     inkscape:pageshadow="2"
     inkscape:zoom="1.275387"
     inkscape:cx="262.02463"
     inkscape:cy="97.191967"
     inkscape:document-units="px"
     inkscape:current-layer="layer1"
     showgrid="false"
     inkscape:window-width="1304"
     inkscape:window-height="956"
     inkscape:window-x="20"
     inkscape:window-y="20"
     inkscape:window-maximized="0"
     fit-margin-top="0"
     fit-margin-left="0"
     fit-margin-right="0"
     fit-margin-bottom="0" />
  <metadata
     id="metadata3186">
    <rdf:RDF>
      <cc:Work
         rdf:about="">
        <dc:format>image/svg+xml</dc:format>
        <dc:type
           rdf:resource="http://purl.org/dc/dcmitype/StillImage" />
        <dc:title />
      </cc:Work>
    </rdf:RDF>
  </metadata>
  <g
     inkscape:label="Layer 1"
     inkscape:groupmode="layer"
     id="layer1"
     transform="translate(-76.5468,-403.74165)">
    <g
       transform="matrix(1.25,0,0,-1.25,336.73255,622.7969)"
       id="g44">
      <path
         inkscape:connector-curvature="0"
         id="path46"
         style="fill:#583180;fill-opacity:1;fill-rule:nonzero;stroke:none"
         d="m 0,0 0,58.682 c 0,23.025 1.74,39.392 16.896,50.156 15.772,11.199 36.024,9.512 36.024,9.512 l 0,-23.844 c 0,0 -10.547,0.5 -16.334,-5.102 -4.134,-4.002 -6.098,-11.449 -6.098,-20.16 L 30.488,0 0,0 z" />
    </g>
    <g
       transform="matrix(1.25,0,0,-1.25,287.6798,508.09715)"
       id="g48">
      <path
         inkscape:connector-curvature="0"
         id="path50"
         style="fill:#583180;fill-opacity:1;fill-rule:nonzero;stroke:none"
         d="m 0,0 11.672,0 2.348,-21.428 2.05,0 2.348,21.428 12.055,0 0,14.512 L 0,14.512 0,0 z" />
    </g>
    <g
       transform="matrix(1.25,0,0,-1.25,325.77055,461.24165)"
       id="g52">
      <path
         inkscape:connector-curvature="0"
         id="path54"
         style="fill:#583180;fill-opacity:1;fill-rule:nonzero;stroke:none"
         d="m 0,0 0,24.635 c 0,6.939 -4.551,12.812 -10.836,14.803 L -15.531,46 -20.223,39.438 c -4.011,-1.274 -7.312,-4.137 -9.179,-7.846 -11.078,6.299 -24.723,9.461 -40.953,9.461 -25.676,0 -45.333,-7.453 -58.957,-22.348 -10.024,-10.736 -16.27,-25.517 -18.747,-44.338 l 0,30.592 -7.265,0 c -6.524,0 -11.852,-5.289 -11.852,-11.811 l 0,-60.353 c 0,0 -24.433,9.559 -24.433,-5.844 0,0 -10.36,12.817 13.351,17.207 -6.664,0.543 -21.121,-2.392 -21.121,-11.48 0,-9.086 9.859,-11.731 12.895,-11.731 3.996,0 12.804,0.946 19.308,2.063 l 0,-11.121 c 0,-6.524 5.328,-11.809 11.852,-11.809 l 7.265,0 0,33.301 0.219,0 c 2.563,-17.652 8.567,-31.695 18.051,-42.098 2.859,-3.281 6.019,-6.172 9.445,-8.722 0.535,-0.403 1.063,-0.813 1.614,-1.2 2.082,-1.449 4.269,-2.757 6.546,-3.953 -2.953,-4.105 -7.035,-10.039 -7.035,-11.476 0,-0.032 0.016,-0.067 0.016,-0.102 -0.09,-0.398 -0.152,-0.801 -0.152,-1.203 0,-8.438 20.359,-15.277 45.472,-15.277 25.113,0 45.469,6.839 45.469,15.277 0,1.707 -0.848,3.348 -2.387,4.879 -12.535,-7.461 -26.883,-11.445 -41.851,-11.445 -9.614,0 -18.969,1.656 -27.758,4.812 17.57,-4.465 28.832,0.606 28.832,0.606 -12.281,0.335 -21.684,4.816 -27.699,8.816 7.812,-2.234 16.5,-3.363 26.066,-3.363 17.91,0 32.875,3.738 44.926,11.179 1.199,0.739 2.367,1.52 3.512,2.328 0.992,0.7 1.964,1.422 2.914,2.188 12.675,10.769 19.804,25.672 21.394,44.691 l -12.129,0 -0.117,0 -20.559,0 c -2.543,-10.461 -6.82,-18.07 -12.839,-22.82 -6.657,-5.074 -15.055,-7.609 -25.196,-7.609 -14.586,0 -25.523,4.906 -32.808,14.738 -7.606,9.512 -11.414,23.133 -11.414,40.893 0,18.378 3.808,32.328 11.414,41.839 7.918,9.508 19.175,14.262 33.758,14.262 10.457,0 18.855,-2.375 25.199,-7.127 3.164,-3.178 5.859,-6.822 8.086,-10.939 3.16,-6.655 8.554,-9.987 16.164,-9.987 l 20.906,0.03 0,5.757 -0.715,0 -5.015,0 -2.329,0 c 0,0 0.032,0.883 -0.125,2.465 -0.546,5.641 -3.39,20.168 -17.972,35.157 0,0 4.73,-1.18 10.437,-5.204 C -10.273,16.932 -3.953,10.484 0,0" />
    </g>
    <g
       transform="matrix(1.25,0,0,-1.25,544.02743,622.7969)"
       id="g56">
      <path
         inkscape:connector-curvature="0"
         id="path58"
         style="fill:#583180;fill-opacity:1;fill-rule:nonzero;stroke:none"
         d="m 0,0 0,119.342 c 0,10.451 2.754,18.291 8.277,23.519 5.227,4.934 13.785,6.924 25.7,6.924 l 14.371,0 0,-24.346 -7.84,0 c -4.07,0 -6.973,-0.584 -8.711,-1.742 -1.461,-1.166 -2.176,-3.484 -2.176,-6.968 l 0,-7.838 18.727,0 0,-6.536 c 0,-4.359 -1.457,-7.916 -4.356,-10.671 -2.906,-2.762 -6.25,-4.137 -10.015,-4.137 l -4.356,0 L 29.621,0 0,0 z" />
    </g>
    <g
       transform="matrix(1.25,0,0,-1.25,654.33017,513.36327)"
       id="g60">
      <path
         inkscape:connector-curvature="0"
         id="path62"
         style="fill:#583180;fill-opacity:1;fill-rule:nonzero;stroke:none"
         d="m 0,0 4.355,0 c 3.766,0 7.11,1.375 10.016,4.137 2.899,2.756 4.356,6.312 4.356,10.672 l 0,6.535 -18.727,0 -0.01,0.002 0,26.127 c 0,4.062 -1.457,7.547 -4.351,10.457 -2.907,2.898 -6.25,4.353 -10.024,4.353 l -15.679,0 0,-128.053 c 0,-13.359 5.589,-20.468 16.773,-21.339 11.168,-0.875 21.559,-1.016 31.137,-0.438 l 0,22.649 -9.145,0 c -5.816,0 -8.711,2.464 -8.711,7.406 l 0,57.498 L 0,0 z" />
    </g>
    <g
       transform="matrix(1.25,0,0,-1.25,493.03617,563.45115)"
       id="g64">
      <path
         inkscape:connector-curvature="0"
         id="path66"
         style="fill:#583180;fill-opacity:1;fill-rule:nonzero;stroke:none"
         d="m 0,0 c 0,-8.133 -2.332,-14.527 -6.969,-19.164 -4.652,-4.652 -11.043,-6.969 -19.164,-6.969 -4.945,0 -8.711,1.156 -11.324,3.481 -2.613,2.617 -3.922,6.101 -3.922,10.457 0,3.191 1.012,6.383 3.047,9.582 2.32,2.316 6.098,4.203 11.328,5.66 l 10.012,2.18 C -9.734,6.969 -4.074,8.852 0,10.887 L 0,0 z m -9.998,70.871 c -1.533,0 -54.643,0.002 -54.643,0.002 l 0,-23.844 c 0.174,0 50.51,0.004 50.68,0 11.502,-0.187 13.524,-6.722 13.524,-11.013 0,-5.809 -6.391,-9.012 -19.165,-10.754 -2.613,-0.293 -10.746,-1.742 -12.195,-1.742 -11.039,-1.743 -20.109,-5.227 -27.223,-10.457 -7.117,-5.227 -10.671,-13.934 -10.671,-26.129 0,-13.067 3.921,-22.434 11.761,-28.094 7.84,-5.664 16.989,-8.492 27.438,-8.492 5.23,0 11.246,0.367 18.074,1.086 6.816,0.726 13.289,2.683 19.387,5.882 5.804,2.895 10.808,7.621 15.023,14.153 4.203,6.535 6.317,15.605 6.317,27.222 l 0,39.637 c 0,10.449 -6.832,32.543 -38.307,32.543" />
    </g>
  </g>
</svg>
